<svg version="1.1" class="clearos-svg clearfoundation app-vendor-clearfoundation app-free app-category-gateway app-sub-category-intrusion-protection" viewBox="0 0 400 400" preserveAspectRatio="xMinYMin" xmlns="http://www.w3.org/2000/svg" xmlns:xlink= "http://www.w3.org/1999/xlink">
<path fill="#AA0707" d="M91.666,184.647"/>
<path fill="#AA0707" d="M123.245,247.805"/>
<path fill="#AA0707" d="M91.666,184.647"/>
<path fill="#AA0707" d="M123.245,247.805"/>
<path fill="#686868" d="M387.37,69.111c0-12.544-18.814-26.664-18.814-26.664C280.008,100.472,199.263,1.712,199.263,1.712
	C124.805,100.472,28.41,40.903,28.41,40.903S11.17,53.432,12.73,72.247s13.489,23.086,14.12,43.918
	c2.505,86.859,5.389,126.951,5.389,126.951c28.239,126.947,167.023,155.172,167.023,155.172
	c142.629-43.918,163.021-134.813,169.324-163.021c6.256-28.207,0-115.997,4.696-128.525C377.979,94.2,387.37,81.641,387.37,69.111z
	 M168.707,347.721l46.959-113.809H104.791l63.916-123.67h84.779l-48.282,85.442h90.012L168.707,347.721z"/>
</svg>
